<svg width="28" height="29" viewBox="0 0 28 29" fill="none" xmlns="http://www.w3.org/2000/svg">
<path d="M14 10.7249C11.993 10.7249 10.3551 12.4213 10.3551 14.5C10.3551 16.5787 11.993 18.2751 14 18.2751C16.007 18.2751 17.6449 16.5787 17.6449 14.5C17.6449 12.4213 16.007 10.7249 14 10.7249ZM24.932 14.5C24.932 12.9367 24.9457 11.3876 24.8609 9.82715C24.7762 8.01465 24.377 6.40605 23.0973 5.08066C21.8149 3.75244 20.2645 3.3418 18.5145 3.254C17.0051 3.16621 15.5094 3.18037 14.0027 3.18037C12.4934 3.18037 10.9977 3.16621 9.49102 3.254C7.74102 3.3418 6.1879 3.75527 4.90821 5.08066C3.62579 6.40889 3.2293 8.01465 3.14454 9.82715C3.05977 11.3904 3.07345 12.9395 3.07345 14.5C3.07345 16.0604 3.05977 17.6124 3.14454 19.1728C3.2293 20.9853 3.62852 22.5939 4.90821 23.9193C6.19063 25.2476 7.74102 25.6582 9.49102 25.746C11.0004 25.8338 12.4961 25.8196 14.0027 25.8196C15.5121 25.8196 17.0078 25.8338 18.5145 25.746C20.2645 25.6582 21.8176 25.2447 23.0973 23.9193C24.3797 22.5911 24.7762 20.9853 24.8609 19.1728C24.9484 17.6124 24.932 16.0633 24.932 14.5ZM14 20.3085C10.8965 20.3085 8.3918 17.7144 8.3918 14.5C8.3918 11.2856 10.8965 8.6915 14 8.6915C17.1035 8.6915 19.6082 11.2856 19.6082 14.5C19.6082 17.7144 17.1035 20.3085 14 20.3085ZM19.8379 9.81015C19.1133 9.81015 18.5281 9.2041 18.5281 8.45361C18.5281 7.70312 19.1133 7.09707 19.8379 7.09707C20.5625 7.09707 21.1477 7.70312 21.1477 8.45361C21.1479 8.63182 21.1141 8.80832 21.0484 8.973C20.9827 9.13769 20.8862 9.28732 20.7645 9.41333C20.6429 9.53934 20.4984 9.63926 20.3394 9.70735C20.1804 9.77544 20.01 9.81038 19.8379 9.81015Z" fill="black"/>
</svg>
