<svg width="34" height="34" viewBox="0 0 34 34" fill="none" xmlns="http://www.w3.org/2000/svg">
<path d="M11.3333 26.9167H7.08331V12.75H11.3333V26.9167ZM26.9166 26.9167H22.6666V19.3488C22.6666 17.3768 21.964 16.3951 20.5714 16.3951C19.4678 16.3951 18.768 16.9448 18.4166 18.0455V26.9167H14.1666C14.1666 26.9167 14.2233 14.1667 14.1666 12.75H17.5213L17.7806 15.5833H17.8684C18.7396 14.1667 20.1322 13.2062 22.0419 13.2062C23.494 13.2062 24.6684 13.6099 25.5651 14.6243C26.4676 15.64 26.9166 17.0028 26.9166 18.9167V26.9167Z" fill="black"/>
<path d="M9.20835 11.3333C10.4211 11.3333 11.4042 10.3819 11.4042 9.20834C11.4042 8.03474 10.4211 7.08334 9.20835 7.08334C7.99562 7.08334 7.01251 8.03474 7.01251 9.20834C7.01251 10.3819 7.99562 11.3333 9.20835 11.3333Z" fill="black"/>
</svg>
