<svg width="22" height="23" viewBox="0 0 22 23" fill="none" xmlns="http://www.w3.org/2000/svg">
<path d="M11 7.7249C8.99298 7.7249 7.35509 9.42129 7.35509 11.5C7.35509 13.5787 8.99298 15.2751 11 15.2751C13.007 15.2751 14.6449 13.5787 14.6449 11.5C14.6449 9.42129 13.007 7.7249 11 7.7249ZM21.932 11.5C21.932 9.93672 21.9457 8.3876 21.8609 6.82715C21.7762 5.01465 21.377 3.40605 20.0973 2.08066C18.8149 0.75244 17.2645 0.341795 15.5145 0.254002C14.0051 0.166209 12.5094 0.18037 11.0027 0.18037C9.49337 0.18037 7.99766 0.166209 6.49102 0.254002C4.74102 0.341795 3.1879 0.755272 1.90821 2.08066C0.625789 3.40889 0.229304 5.01465 0.144539 6.82715C0.0597732 8.39043 0.0734452 9.93955 0.0734452 11.5C0.0734452 13.0604 0.0597732 14.6124 0.144539 16.1728C0.229304 17.9853 0.628523 19.5939 1.90821 20.9193C3.19063 22.2476 4.74102 22.6582 6.49102 22.746C8.0004 22.8338 9.4961 22.8196 11.0027 22.8196C12.5121 22.8196 14.0078 22.8338 15.5145 22.746C17.2645 22.6582 18.8176 22.2447 20.0973 20.9193C21.3797 19.5911 21.7762 17.9853 21.8609 16.1728C21.9484 14.6124 21.932 13.0633 21.932 11.5V11.5ZM11 17.3085C7.89649 17.3085 5.3918 14.7144 5.3918 11.5C5.3918 8.28564 7.89649 5.6915 11 5.6915C14.1035 5.6915 16.6082 8.28564 16.6082 11.5C16.6082 14.7144 14.1035 17.3085 11 17.3085ZM16.8379 6.81015C16.1133 6.81015 15.5281 6.2041 15.5281 5.45361C15.5281 4.70312 16.1133 4.09707 16.8379 4.09707C17.5625 4.09707 18.1477 4.70312 18.1477 5.45361C18.1479 5.63182 18.1141 5.80832 18.0484 5.973C17.9827 6.13769 17.8862 6.28732 17.7645 6.41333C17.6429 6.53934 17.4984 6.63926 17.3394 6.70735C17.1804 6.77544 17.01 6.81038 16.8379 6.81015V6.81015Z" fill="black"/>
</svg>
