<svg width="27" height="27" viewBox="0 0 27 27" fill="none" xmlns="http://www.w3.org/2000/svg">
<path d="M2.25452 24.75L3.77552 19.161C2.7733 17.443 2.24675 15.489 2.25002 13.5C2.25002 7.28663 7.28664 2.25 13.5 2.25C19.7134 2.25 24.75 7.28663 24.75 13.5C24.75 19.7134 19.7134 24.75 13.5 24.75C11.5119 24.7532 9.55875 24.2271 7.84126 23.2256L2.25452 24.75ZM9.43989 8.2215C9.29461 8.23052 9.15265 8.26879 9.02252 8.334C8.90048 8.40311 8.78907 8.4895 8.69176 8.5905C8.55676 8.71763 8.48027 8.82788 8.39814 8.93475C7.98235 9.47587 7.7587 10.1401 7.76252 10.8225C7.76477 11.3737 7.90876 11.9104 8.13377 12.4121C8.59389 13.4269 9.35102 14.5012 10.3511 15.4969C10.5919 15.7365 10.827 15.9773 11.0801 16.2011C12.3215 17.294 13.8007 18.0822 15.4001 18.5029L16.0403 18.6007C16.2484 18.612 16.4565 18.5963 16.6658 18.5861C16.9934 18.5692 17.3133 18.4805 17.6029 18.3263C17.7502 18.2504 17.894 18.1678 18.0338 18.0787C18.0338 18.0787 18.0821 18.0472 18.1744 17.9775C18.3263 17.865 18.4196 17.7851 18.5456 17.6535C18.639 17.5568 18.72 17.4431 18.7819 17.3138C18.8696 17.1304 18.9574 16.7805 18.9934 16.4891C19.0204 16.2664 19.0125 16.1449 19.0091 16.0695C19.0046 15.9491 18.9045 15.8243 18.7954 15.7714L18.1406 15.4778C18.1406 15.4778 17.1619 15.0514 16.5645 14.7791C16.5015 14.7517 16.434 14.736 16.3654 14.733C16.2884 14.7251 16.2106 14.7338 16.1373 14.7584C16.0639 14.783 15.9967 14.8231 15.9401 14.8759V14.8736C15.9345 14.8736 15.8591 14.9377 15.0458 15.9233C14.9991 15.986 14.9348 16.0334 14.861 16.0594C14.7873 16.0855 14.7075 16.089 14.6318 16.0695C14.5585 16.0499 14.4867 16.0251 14.4169 15.9953C14.2774 15.9368 14.229 15.9143 14.1334 15.8726L14.1278 15.8704C13.4842 15.5894 12.8883 15.2098 12.3615 14.7454C12.2198 14.6216 12.0881 14.4866 11.9531 14.3561C11.5105 13.9323 11.1248 13.4528 10.8056 12.9296L10.7393 12.8228C10.6916 12.7509 10.653 12.6735 10.6245 12.5921C10.5818 12.4268 10.6931 12.294 10.6931 12.294C10.6931 12.294 10.9665 11.9948 11.0936 11.8327C11.1995 11.6981 11.2982 11.558 11.3895 11.4131C11.5223 11.1994 11.5639 10.98 11.4941 10.8101C11.1791 10.0406 10.8529 9.2745 10.5176 8.514C10.4513 8.36325 10.2544 8.25525 10.0755 8.23387C10.0148 8.22712 9.95401 8.22038 9.89326 8.21588C9.74218 8.20837 9.59079 8.20987 9.43989 8.22038V8.2215Z" fill="black"/>
</svg>
